# xmcd
#
# Track frame offsets: 
#        150
#        14055
#        29997
#        47872
#        77412
#        95047
#        132182
#        158860
#        183387
#        199335
#        215365
#        242662
#        256877
#
# Disc length: 3475 seconds
#
# Revision: 2
# Processed by: cddbd v1.5.1PL0 Copyright (c) Steve Scherf et al.
# Submitted via: ExactAudioCopy v0.90b4
#
DISCID=ba0d910d
DTITLE=Jimmy Thackery And The Drivers - Switching Gears
DYEAR=1998
DGENRE=Blues
TTITLE0=I've Got Other Plans
TTITLE1=Take Me With You When You Go
TTITLE2=Dancing On Broken Glass
TTITLE3=It's My Own Fault
TTITLE4=Monkey
TTITLE5=Roy's Blues
TTITLE6=I Wouldn't Change A Thing
TTITLE7=Write If You Find Love
TTITLE8=I Got To Be Strong
TTITLE9=Gin In The Morning
TTITLE10=Still Raining, Still Dreaming
TTITLE11=If This Is Love
TTITLE12=Still Raining, Still Dreaming (Reprise)
EXTD=
EXTT0=
EXTT1=
EXTT2=
EXTT3=
EXTT4=
EXTT5=
EXTT6=
EXTT7=
EXTT8=
EXTT9=
EXTT10=
EXTT11=
EXTT12=
PLAYORDER=
